<?xml version="1.0" encoding="UTF-8"?>
<svg width="129px" height="45px" viewBox="0 0 129 45" version="1.1" xmlns="http://www.w3.org/2000/svg" xmlns:xlink="http://www.w3.org/1999/xlink">
    <!-- Generator: Sketch 46.2 (44496) - http://www.bohemiancoding.com/sketch -->
    <title>owlEmblemWithText-small</title>
    <desc>Created with Sketch.</desc>
    <defs></defs>
    <g id="Page-1" stroke="none" stroke-width="1" fill="none" fill-rule="evenodd">
        <g id="owlEmblemWithText-small" transform="translate(-9.000000, -7.000000)">
            <g id="g3" transform="translate(106.148231, 12.643805)" fill-rule="nonzero">
                <path d="M31.2010422,16.0646679 L31.1986651,2.13828428 C27.59504,0.86450552 21.9389076,0.0404122654 15.5599108,0.0404122654 C9.3033393,0.0404122654 3.73377636,0.860147334 0.131537962,2.13828428 L0.129953167,16.2667292 C0.129953167,18.3491495 0.0356578812,22.035382 1.92909137,26.4492334 C4.28033244,31.9296516 8.83166478,36.0499198 15.327144,38.6331352 L15.6647053,38.7710123 L15.9988989,38.6341257 C22.4991325,36.0499198 27.050663,31.9294535 29.401904,26.4490353 C31.2961299,22.0357782 31.2010422,18.0617073 31.2010422,16.0646679 L31.2010422,16.0646679 Z" id="path5" stroke="#000000" stroke-width="1.03497004" fill="#FFFFFF"></path>
                <path d="M27.3694048,13.0561332 C27.3846585,13.2704767 27.0362017,13.7055028 26.9371521,13.873293 C26.5015316,14.6104206 26.0039061,15.3158524 25.4446716,15.9646277 C23.5260795,18.19067 20.9173093,19.2326725 18.2873425,20.3745171 C16.69502,21.06628 14.738789,21.7944932 13.3724978,22.8834453 C10.5705808,25.1154305 9.24054181,28.2976983 10.640906,31.7543337 C10.640906,31.7543337 12.7498716,33.18679 15.6652996,34.4282786 C15.6654977,34.4282786 29.3163251,31.6017972 27.3694048,13.0561332 Z" id="path9" fill="#4F2683"></path>
                <path d="M9.30175451,9.97965045 C11.0075879,10.7892825 12.5662335,11.9479655 13.7968266,13.376856 C14.2924712,13.9523346 15.666092,16.6924447 15.666092,17.5448661 C15.666092,16.6924447 17.0397128,13.9523346 17.5349612,13.376856 C18.7657524,11.9479655 20.324398,10.7890844 22.0302314,9.97965045 C23.4597162,9.30116021 26.6621902,9.29838682 27.4553799,7.69298977 L27.4551818,6.45486889 C24.7198261,5.4936909 20.4272115,4.87146087 15.5856637,4.87146087 C10.8374206,4.87146087 6.61037688,5.49032321 3.87640789,6.45486889 L3.87640789,7.69239547 C4.66939954,9.29838682 7.87226967,9.30116021 9.30175451,9.97965045 L9.30175451,9.97965045 Z" id="path11" fill="#4F2683"></path>
                <g id="g13" transform="translate(7.131576, 9.112570)" fill="#4F2683">
                    <circle id="circle15" cx="3.81123518" cy="3.94356317" r="3.76943424"></circle>
                </g>
                <circle id="circle19" fill="#FFFFFF" cx="11.6975699" cy="11.2849276" r="1"></circle>
                <circle id="circle21" fill="#4F2683" cx="20.438111" cy="13.0561328" r="3.76943424"></circle>
                <circle id="circle25" fill="#FFFFFF" cx="21.1930616" cy="11.2849276" r="1"></circle>
                <polyline id="polyline27" fill="#4F2683" points="8.42655163 6.56639882 3.87640789 2.67592588 3.87640789 7.13296294"></polyline>
                <polyline id="polyline29" fill="#4F2683" points="22.9052362 6.56639882 27.4553799 2.67592588 27.4553799 7.13296294"></polyline>
            </g>
            <g id="g31" transform="translate(0.550310, 0.445706)">
                <path d="M22.0340731,31.5797426 C22.0340731,17.5243963 27.4358459,12.1386695 35.1448817,12.1386695 C42.801025,12.1386695 48.2029959,17.5243963 48.2029959,31.5797426 C48.2029959,45.6356831 42.801025,50.9699041 35.1448817,50.9699041 C27.4356478,50.9699041 22.0340731,45.6356831 22.0340731,31.5797426 Z M39.0777479,31.5797426 C39.0777479,23.4233984 38.1340026,19.9356615 35.1446836,19.9356615 C32.1030663,19.9356615 31.1587268,23.4233984 31.1587268,31.5797426 C31.1587268,39.7360867 32.1030663,43.4288565 35.1446836,43.4288565 C38.1340026,43.4288565 39.0777479,39.7360867 39.0777479,31.5797426 Z" id="path33" stroke="#000000" stroke-width="1.16876629" fill="#FFFFFF" fill-rule="nonzero"></path>
                <path d="M45.9484273,12.6004391 L54.6535066,12.6004391 L56.1222151,23.6805314 C56.646386,27.5789283 57.1186548,30.7592151 57.5380311,36.0425245 L57.7482145,36.0425245 C58.3246836,31.0155556 58.7965562,27.630236 59.3732234,23.6805314 L60.9469245,12.6004391 L68.1315914,12.6004391 L69.7045002,23.5775197 C70.3338618,27.783763 70.910727,31.1694788 71.3827978,36.0427226 L71.5927831,36.0427226 C71.9598612,31.1694788 72.4317338,27.6813457 72.9563008,23.8344546 L74.4767133,12.6006372 L82.1340452,12.6006372 L75.3683584,50.6622558 L67.6599169,50.6622558 L64.1460308,28.2451364 L63.9360455,28.2451364 L60.4221594,50.6622558 L52.713916,50.6622558 L45.9484273,12.6004391 Z" id="path35" stroke="#000000" stroke-width="1.16876629" fill="#FFFFFF" fill-rule="nonzero"></path>
                <polygon id="path37" stroke="#000000" stroke-width="1.16876629" fill="#FFFFFF" fill-rule="nonzero" points="83.1310791 12.6004391 92.1507402 12.6004391 92.1507402 43.326241 102.429323 43.326241 102.429323 50.5594422 83.1310791 50.5594422 83.1310791 12.6004391"></polygon>
                <text id="fake" transform="translate(22.034073, 19.080573) rotate(-30.000000) translate(-22.034073, -19.080573) " font-family="SignPainter-HouseScriptSemibold, SignPainter" font-size="24" font-style="italic" font-weight="500" fill="#CB0000">
                    <tspan x="5.97807309" y="25.0805734">fake</tspan>
                </text>
            </g>
        </g>
    </g>
</svg>