<?xml version="1.0" encoding="UTF-8"?>
<svg width="136px" height="40px" viewBox="0 0 136 40" version="1.1" xmlns="http://www.w3.org/2000/svg" xmlns:xlink="http://www.w3.org/1999/xlink">
    <!-- Generator: Sketch 46.2 (44496) - http://www.bohemiancoding.com/sketch -->
    <title>owlEmblemWithText-small</title>
    <desc>Created with Sketch.</desc>
    <defs></defs>
    <g id="Page-1" stroke="none" stroke-width="1" fill="none" fill-rule="evenodd">
        <g id="owlEmblemWithText-small" fill-rule="nonzero">
            <g id="g3" transform="translate(104.148232, 0.643805)">
                <path d="M31.2010422,16.0646679 L31.1986651,2.13828428 C27.59504,0.86450552 21.9389076,0.0404122654 15.5599108,0.0404122654 C9.3033393,0.0404122654 3.73377636,0.860147334 0.131537962,2.13828428 L0.129953167,16.2667292 C0.129953167,18.3491495 0.0356578812,22.035382 1.92909137,26.4492334 C4.28033244,31.9296516 8.83166478,36.0499198 15.327144,38.6331352 L15.6647053,38.7710123 L15.9988989,38.6341257 C22.4991325,36.0499198 27.050663,31.9294535 29.401904,26.4490353 C31.2961299,22.0357782 31.2010422,18.0617073 31.2010422,16.0646679 L31.2010422,16.0646679 Z" id="path5" stroke="#000000" stroke-width="1.03497004" fill="#FFFFFF"></path>
                <path d="M27.3694048,13.0561332 C27.3846585,13.2704767 27.0362017,13.7055028 26.9371521,13.873293 C26.5015316,14.6104206 26.0039061,15.3158524 25.4446716,15.9646277 C23.5260795,18.19067 20.9173093,19.2326725 18.2873425,20.3745171 C16.69502,21.06628 14.738789,21.7944932 13.3724978,22.8834453 C10.5705808,25.1154305 9.24054181,28.2976983 10.640906,31.7543337 C10.640906,31.7543337 12.7498716,33.18679 15.6652996,34.4282786 C15.6654977,34.4282786 29.3163251,31.6017972 27.3694048,13.0561332 Z" id="path9" fill="#4F2683"></path>
                <path d="M9.30175451,9.97965045 C11.0075879,10.7892825 12.5662335,11.9479655 13.7968266,13.376856 C14.2924712,13.9523346 15.666092,16.6924447 15.666092,17.5448661 C15.666092,16.6924447 17.0397128,13.9523346 17.5349612,13.376856 C18.7657524,11.9479655 20.324398,10.7890844 22.0302314,9.97965045 C23.4597162,9.30116021 26.6621902,9.29838682 27.4553799,7.69298977 L27.4551818,6.45486889 C24.7198261,5.4936909 20.4272115,4.87146087 15.5856637,4.87146087 C10.8374206,4.87146087 6.61037688,5.49032321 3.87640789,6.45486889 L3.87640789,7.69239547 C4.66939954,9.29838682 7.87226967,9.30116021 9.30175451,9.97965045 L9.30175451,9.97965045 Z" id="path11" fill="#4F2683"></path>
                <g id="g13" transform="translate(7.131576, 9.112570)" fill="#4F2683">
                    <circle id="circle15" cx="3.81123518" cy="3.94356317" r="3.76943424"></circle>
                </g>
                <circle id="circle19" fill="#FFFFFF" cx="11.6975699" cy="11.2849276" r="1"></circle>
                <circle id="circle21" fill="#4F2683" cx="20.438111" cy="13.0561328" r="3.76943424"></circle>
                <circle id="circle25" fill="#FFFFFF" cx="21.1930616" cy="11.2849276" r="1"></circle>
                <polyline id="polyline27" fill="#4F2683" points="8.42655163 6.56639882 3.87640789 2.67592588 3.87640789 7.13296294"></polyline>
                <polyline id="polyline29" fill="#4F2683" points="22.9052362 6.56639882 27.4553799 2.67592588 27.4553799 7.13296294"></polyline>
            </g>
            <g id="g31" transform="translate(0.550310, 0.445706)" stroke="#000000" stroke-width="1.16876629">
                <path d="M20.0340731,19.5797426 C20.0340731,5.52439629 25.4358459,0.138669538 33.1448817,0.138669538 C40.801025,0.138669538 46.2029959,5.52439629 46.2029959,19.5797426 C46.2029959,33.6356831 40.801025,38.9699041 33.1448817,38.9699041 C25.4356478,38.9699041 20.0340731,33.6356831 20.0340731,19.5797426 Z M37.0777479,19.5797426 C37.0777479,11.4233984 36.1340026,7.93566146 33.1446836,7.93566146 C30.1030663,7.93566146 29.1587268,11.4233984 29.1587268,19.5797426 C29.1587268,27.7360867 30.1030663,31.4288565 33.1446836,31.4288565 C36.1340026,31.4288565 37.0777479,27.7360867 37.0777479,19.5797426 Z" id="path33" fill="#FFFFFF"></path>
                <path d="M43.9484273,0.6004391 L52.6535066,0.6004391 L54.1222151,11.6805314 C54.646386,15.5789283 55.1186548,18.7592151 55.5380311,24.0425245 L55.7482145,24.0425245 C56.3246836,19.0155556 56.7965562,15.630236 57.3732234,11.6805314 L58.9469245,0.6004391 L66.1315914,0.6004391 L67.7045002,11.5775197 C68.3338618,15.783763 68.910727,19.1694788 69.3827978,24.0427226 L69.5927831,24.0427226 C69.9598612,19.1694788 70.4317338,15.6813457 70.9563008,11.8344546 L72.4767133,0.600637199 L80.1340452,0.600637199 L73.3683584,38.6622558 L65.6599169,38.6622558 L62.1460308,16.2451364 L61.9360455,16.2451364 L58.4221594,38.6622558 L50.713916,38.6622558 L43.9484273,0.6004391 Z" id="path35" fill="#FFFFFF"></path>
                <polygon id="path37" fill="#FFFFFF" points="81.1310791 0.6004391 90.1507402 0.6004391 90.1507402 31.326241 100.429323 31.326241 100.429323 38.5594422 81.1310791 38.5594422 81.1310791 0.6004391"></polygon>
                <polygon id="path37" fill="#CB0000" transform="translate(9.816069, 19.854996) scale(1, -1) translate(-9.816069, -19.854996) " points="9.15074018 0.974075328 9.15074018 16.1037445 17.6779567 16.1037445 17.6779567 23.1142323 9.15074018 23.1142323 9.15074018 31.5189149 19.5010584 31.5189149 19.5010584 38.7359161 0.131079132 38.7359161 0.131079132 25.1095523 0.131079132 0.974075328"></polygon>
            </g>
        </g>
    </g>
</svg>